<svg xmlns="http://www.w3.org/2000/svg" viewBox="3 3 94 94">
  <defs><clipPath id="cvtile"><rect x="6" y="6" width="88" height="88" rx="20"></rect></clipPath></defs>
  <rect x="6" y="6" width="88" height="88" rx="20" fill="#F2E9D6" stroke="#3A2D20" stroke-width="4"></rect>
  <g clip-path="url(#cvtile)">
    <circle cx="77" cy="22" r="9" fill="#E0A32E" stroke="#3A2D20" stroke-width="3.5"></circle>
    <path d="M 0 78 C 22 56, 52 66, 100 52 L 100 100 L 0 100 Z" fill="#6B7F58" stroke="#3A2D20" stroke-width="3.5"></path>
    <path d="M 4 73 C 24 58, 56 64, 96 51" fill="none" stroke="#FFFBF1" stroke-width="3.5" stroke-linecap="round" stroke-dasharray="0.5 9"></path>
    <g transform="rotate(-7 50 60)">
      <g transform="translate(8.5,45) scale(0.9)">
        <path d="M 2 9 L 2 7 Q 2 1.5 9 1.5 L 15 1.5 Q 22 1.5 22 7 L 22 9 Z" fill="#FFFBF1" stroke="#3A2D20" stroke-width="2.33" stroke-linejoin="round"></path>
        <path d="M 7.5 1.8 L 7.5 8.8 M 12 1.5 L 12 8.8 M 16.5 1.8 L 16.5 8.8" stroke="#3A2D20" stroke-width="1.22" stroke-linecap="round"></path>
        <rect x="1" y="9" width="22" height="5.2" rx="1.2" fill="#E0A32E" stroke="#3A2D20" stroke-width="2.33"></rect>
        <circle cx="6.5" cy="16" r="3.5" fill="#E0A32E" stroke="#3A2D20" stroke-width="2.14"></circle>
        <circle cx="6.5" cy="16" r="1" fill="#3A2D20"></circle>
        <circle cx="17.5" cy="16" r="3.5" fill="#E0A32E" stroke="#3A2D20" stroke-width="2.14"></circle>
        <circle cx="17.5" cy="16" r="1" fill="#3A2D20"></circle>
      </g>
      <g transform="translate(33,38) scale(1.15)">
        <path d="M 2 9 L 2 7 Q 2 1.5 9 1.5 L 15 1.5 Q 22 1.5 22 7 L 22 9 Z" fill="#FFFBF1" stroke="#3A2D20" stroke-width="1.83" stroke-linejoin="round"></path>
        <path d="M 7.5 1.8 L 7.5 8.8 M 12 1.5 L 12 8.8 M 16.5 1.8 L 16.5 8.8" stroke="#3A2D20" stroke-width="0.96" stroke-linecap="round"></path>
        <rect x="1" y="9" width="22" height="5.2" rx="1.2" fill="#C2552F" stroke="#3A2D20" stroke-width="1.83"></rect>
        <circle cx="6.5" cy="16" r="3.5" fill="#E0A32E" stroke="#3A2D20" stroke-width="1.68"></circle>
        <circle cx="6.5" cy="16" r="1" fill="#3A2D20"></circle>
        <circle cx="17.5" cy="16" r="3.5" fill="#E0A32E" stroke="#3A2D20" stroke-width="1.68"></circle>
        <circle cx="17.5" cy="16" r="1" fill="#3A2D20"></circle>
      </g>
      <g transform="translate(63.5,43) scale(0.9)">
        <path d="M 2 9 L 2 7 Q 2 1.5 9 1.5 L 15 1.5 Q 22 1.5 22 7 L 22 9 Z" fill="#FFFBF1" stroke="#3A2D20" stroke-width="2.33" stroke-linejoin="round"></path>
        <path d="M 7.5 1.8 L 7.5 8.8 M 12 1.5 L 12 8.8 M 16.5 1.8 L 16.5 8.8" stroke="#3A2D20" stroke-width="1.22" stroke-linecap="round"></path>
        <rect x="1" y="9" width="22" height="5.2" rx="1.2" fill="#FFFBF1" stroke="#3A2D20" stroke-width="2.33"></rect>
        <circle cx="6.5" cy="16" r="3.5" fill="#E0A32E" stroke="#3A2D20" stroke-width="2.14"></circle>
        <circle cx="6.5" cy="16" r="1" fill="#3A2D20"></circle>
        <circle cx="17.5" cy="16" r="3.5" fill="#E0A32E" stroke="#3A2D20" stroke-width="2.14"></circle>
        <circle cx="17.5" cy="16" r="1" fill="#3A2D20"></circle>
      </g>
    </g>
  </g>
  <rect x="6" y="6" width="88" height="88" rx="20" fill="none" stroke="#3A2D20" stroke-width="4"></rect>
</svg>
