<svg xmlns="http://www.w3.org/2000/svg" viewBox="0 48 100 33">
  <path d="M 2 76 Q 50 62 98 76" fill="none" stroke="#3A2D20" stroke-width="4.5" stroke-linecap="round" stroke-dasharray="0.5 6"></path>
  <g transform="rotate(-7 28.65 67.4)">
    <g transform="translate(20,53.4) scale(0.72)">
      <path d="M 2 9 L 2 7 Q 2 1.5 9 1.5 L 15 1.5 Q 22 1.5 22 7 L 22 9 Z" fill="#FFFBF1" stroke="#3A2D20" stroke-width="2.4" stroke-linejoin="round"></path>
      <path d="M 7.5 1.8 L 7.5 8.8 M 12 1.5 L 12 8.8 M 16.5 1.8 L 16.5 8.8" stroke="#3A2D20" stroke-width="1.4" stroke-linecap="round"></path>
      <rect x="1" y="9" width="22" height="5.2" rx="1.2" fill="#E0A32E" stroke="#3A2D20" stroke-width="2.4"></rect>
      <circle cx="6.5" cy="16" r="3.5" fill="#E0A32E" stroke="#3A2D20" stroke-width="2.2"></circle>
      <circle cx="6.5" cy="16" r="1" fill="#3A2D20"></circle>
      <circle cx="17.5" cy="16" r="3.5" fill="#E0A32E" stroke="#3A2D20" stroke-width="2.2"></circle>
      <circle cx="17.5" cy="16" r="1" fill="#3A2D20"></circle>
    </g>
  </g>
  <g transform="translate(39.2,48.5) scale(0.9)">
    <path d="M 2 9 L 2 7 Q 2 1.5 9 1.5 L 15 1.5 Q 22 1.5 22 7 L 22 9 Z" fill="#FFFBF1" stroke="#3A2D20" stroke-width="2.33" stroke-linejoin="round"></path>
    <path d="M 7.5 1.8 L 7.5 8.8 M 12 1.5 L 12 8.8 M 16.5 1.8 L 16.5 8.8" stroke="#3A2D20" stroke-width="1.22" stroke-linecap="round"></path>
    <rect x="1" y="9" width="22" height="5.2" rx="1.2" fill="#C2552F" stroke="#3A2D20" stroke-width="2.33"></rect>
    <circle cx="6.5" cy="16" r="3.5" fill="#E0A32E" stroke="#3A2D20" stroke-width="2.14"></circle>
    <circle cx="6.5" cy="16" r="1" fill="#3A2D20"></circle>
    <circle cx="17.5" cy="16" r="3.5" fill="#E0A32E" stroke="#3A2D20" stroke-width="2.14"></circle>
    <circle cx="17.5" cy="16" r="1" fill="#3A2D20"></circle>
  </g>
  <g transform="rotate(7 71.35 67.4)">
    <g transform="translate(62.7,53.4) scale(0.72)">
      <path d="M 2 9 L 2 7 Q 2 1.5 9 1.5 L 15 1.5 Q 22 1.5 22 7 L 22 9 Z" fill="#FFFBF1" stroke="#3A2D20" stroke-width="2.4" stroke-linejoin="round"></path>
      <path d="M 7.5 1.8 L 7.5 8.8 M 12 1.5 L 12 8.8 M 16.5 1.8 L 16.5 8.8" stroke="#3A2D20" stroke-width="1.4" stroke-linecap="round"></path>
      <rect x="1" y="9" width="22" height="5.2" rx="1.2" fill="#6B7F58" stroke="#3A2D20" stroke-width="2.4"></rect>
      <circle cx="6.5" cy="16" r="3.5" fill="#E0A32E" stroke="#3A2D20" stroke-width="2.2"></circle>
      <circle cx="6.5" cy="16" r="1" fill="#3A2D20"></circle>
      <circle cx="17.5" cy="16" r="3.5" fill="#E0A32E" stroke="#3A2D20" stroke-width="2.2"></circle>
      <circle cx="17.5" cy="16" r="1" fill="#3A2D20"></circle>
    </g>
  </g>
</svg>
